<svg width="155" height="30" viewBox="0 0 155 30" fill="none" xmlns="http://www.w3.org/2000/svg">
<path fill-rule="evenodd" clip-rule="evenodd" d="M63.1857 6.92934C62.2532 6.36104 61.1382 6.0769 59.8408 6.0769C58.442 6.0769 57.1902 6.41493 56.0854 7.09101C54.9806 7.76708 54.1089 8.73709 53.4703 10.0011C52.8317 11.265 52.5124 12.7592 52.5124 14.4837C52.5124 16.1886 52.8317 17.6779 53.4703 18.9517C54.1089 20.2255 54.9806 21.2004 56.0854 21.8764C57.1902 22.5525 58.442 22.8905 59.8408 22.8905C61.1382 22.8905 62.2532 22.6064 63.1857 22.0381C64.1182 21.4698 64.7974 20.6958 65.2231 19.7159V22.6848H70.4229V0.932861H65.2231V9.2515C64.7974 8.27168 64.1182 7.49763 63.1857 6.92934ZM6.17776 21.8924V14.8904H9.52923C11.2787 14.8904 12.7648 14.6127 13.9873 14.0575C15.2099 13.5022 16.132 12.7399 16.7539 11.7705C17.3757 10.8011 17.6866 9.69529 17.6866 8.45299C17.6866 6.45776 16.991 4.87196 15.5998 3.69553C14.2086 2.51911 12.1851 1.9309 9.52923 1.9309H0.771149V21.8924H6.17776ZM11.7164 8.44552C11.7164 10.0909 10.6376 10.9136 8.47998 10.9136H5.74628V5.92321H8.47998C10.6376 5.92321 11.7164 6.76397 11.7164 8.44552ZM24.8326 9.06609C25.4759 8.1034 26.3051 7.33892 27.3202 6.77263C28.3353 6.20635 29.4359 5.92321 30.6219 5.92321V11.1047H29.1444C27.7775 11.1047 26.7172 11.3784 25.9634 11.9258C25.2095 12.4732 24.8326 13.3982 24.8326 14.7006V21.8924H19.6766V6.09309H24.8326V9.06609ZM46.1762 6.88639C44.8255 6.24426 43.2943 5.92321 41.5826 5.92321C39.871 5.92321 38.3346 6.24426 36.9735 6.88639C35.6125 7.52851 34.5453 8.45445 33.7719 9.66425C32.9986 10.874 32.6119 12.2886 32.6119 13.9078C32.6119 15.5271 32.9986 16.9416 33.7719 18.1514C34.5453 19.3612 35.6125 20.2871 36.9735 20.9293C38.3346 21.5714 39.871 21.8924 41.5826 21.8924C43.2943 21.8924 44.8255 21.5714 46.1762 20.9293C47.527 20.2871 48.589 19.3612 49.3624 18.1514C50.1357 16.9416 50.5224 15.5271 50.5224 13.9078C50.5224 12.2886 50.1357 10.874 49.3624 9.66425C48.589 8.45445 47.527 7.52851 46.1762 6.88639ZM42.0798 9.91551C41.0948 9.91551 40.2656 10.2591 39.5922 10.9463C38.9188 11.6334 38.5821 12.6254 38.5821 13.9223C38.5821 15.2192 38.9188 16.2064 39.5922 16.8839C40.2656 17.5614 41.0948 17.9001 42.0798 17.9001C43.0647 17.9001 43.8889 17.5614 44.5522 16.8839C45.2156 16.2064 45.5473 15.2192 45.5473 13.9223C45.5473 12.6254 45.2156 11.6334 44.5522 10.9463C43.8889 10.2591 43.0647 9.91551 42.0798 9.91551ZM62.4465 9.91551C61.2551 9.91551 60.2967 10.2678 59.571 10.9723C58.8454 11.6768 58.4826 12.6553 58.4826 13.9078C58.4826 15.1603 58.8454 16.1388 59.571 16.8433C60.2967 17.5479 61.2551 17.9001 62.4465 17.9001C63.6161 17.9001 64.5746 17.5381 65.3219 16.814C66.0692 16.0899 66.4428 15.1212 66.4428 13.9078C66.4428 12.6749 66.0692 11.7013 65.3219 10.987C64.5746 10.2727 63.6161 9.91551 62.4465 9.91551ZM92.3134 21.7225V5.92321H86.8417V14.3042C86.8417 15.4557 86.5235 16.3428 85.8873 16.9658C85.251 17.5887 84.3815 17.9001 83.2786 17.9001C82.2182 17.9001 81.3752 17.6028 80.7495 17.0082C80.1239 16.4136 79.8111 15.5784 79.8111 14.5024V5.92321H74.403V15.097C74.403 17.2112 75.0021 18.8722 76.2004 20.0803C77.3986 21.2884 79.0158 21.8924 81.0518 21.8924C82.3879 21.8924 83.5597 21.6187 84.5671 21.0713C85.5745 20.5239 86.3326 19.7877 86.8417 18.8628V21.7225H92.3134ZM103.878 5.92321C106.077 5.92321 107.919 6.47691 109.405 7.58434C110.891 8.69177 111.827 10.2133 112.214 12.149H106.687C106.525 11.4789 106.189 10.9578 105.68 10.5856C105.171 10.2133 104.53 10.0272 103.756 10.0272C102.84 10.0272 102.087 10.3575 101.497 11.0183C100.906 11.679 100.611 12.6422 100.611 13.9078C100.611 15.1735 100.906 16.1366 101.497 16.7974C102.087 17.4581 102.84 17.7885 103.756 17.7885C104.53 17.7885 105.171 17.6023 105.68 17.2301C106.189 16.8578 106.525 16.3367 106.687 15.6667H112.214C111.827 17.6023 110.891 19.1239 109.405 20.2313C107.919 21.3387 106.077 21.8924 103.878 21.8924C102.209 21.8924 100.728 21.5714 99.4358 20.9293C98.1432 20.2871 97.1305 19.3612 96.3977 18.1514C95.6649 16.9416 95.2985 15.5271 95.2985 13.9078C95.2985 12.2699 95.6598 10.8508 96.3825 9.65029C97.1051 8.4498 98.1178 7.52851 99.4205 6.88639C100.723 6.24426 102.209 5.92321 103.878 5.92321ZM125.149 21.8924V17.6704H123.503C122.852 17.6704 122.39 17.5459 122.116 17.297C121.841 17.048 121.704 16.6077 121.704 15.9758V10.0017H125.119V5.86576H121.704V1.9309H116.491V5.86576H114.204V10.0017H116.491V15.8896C116.491 18.0342 117.044 19.5708 118.152 20.4994C119.26 21.4281 120.81 21.8924 122.802 21.8924H125.149ZM133.109 0.932861V21.8925H128.134V0.932861H133.109ZM145.221 15.9883L141.048 6.04626H135.099L142.387 21.657L138.307 30.0001H144.162L155 6.04626H149.114L145.221 15.9883Z" fill="#173A56"/>
</svg>
